<?xml version="1.0" encoding="UTF-8" standalone="no"?>
<!DOCTYPE svg PUBLIC "-//W3C//DTD SVG 1.1//EN"
 "http://www.w3.org/Graphics/SVG/1.1/DTD/svg11.dtd">
<!-- Generated by graphviz version 2.47.3 (20210619.1520)
 -->
<!-- Title: dependencies Pages: 1 -->
<svg width="948pt" height="174pt"
 viewBox="0.00 0.00 948.00 173.80" xmlns="http://www.w3.org/2000/svg" xmlns:xlink="http://www.w3.org/1999/xlink">
<g id="graph0" class="graph" transform="scale(1 1) rotate(0) translate(4 169.8)">
<title>dependencies</title>
<polygon fill="white" stroke="transparent" points="-4,4 -4,-169.8 944,-169.8 944,4 -4,4"/>
<text text-anchor="middle" x="470" y="-8.2" font-family="sans-serif" font-size="14.00">dependencies</text>
<g id="clust1" class="cluster">
<title>cluster_GuserModule</title>
<polygon fill="none" stroke="black" stroke-dasharray="1,5" points="8,-32.8 8,-157.8 932,-157.8 932,-32.8 8,-32.8"/>
</g>
<g id="clust8" class="cluster">
<title>cluster_GuserModule_imports</title>
<polygon fill="none" stroke="black" points="770,-40.8 770,-92.8 924,-92.8 924,-40.8 770,-40.8"/>
</g>
<g id="clust2" class="cluster">
<title>cluster_GuserModule_declarations</title>
<polygon fill="none" stroke="black" points="16,-40.8 16,-92.8 762,-92.8 762,-40.8 16,-40.8"/>
</g>
<!-- FormAddUserComponent -->
<g id="node1" class="node">
<title>FormAddUserComponent</title>
<polygon fill="#ffffb3" stroke="black" points="754.2,-84.8 591.8,-84.8 591.8,-48.8 754.2,-48.8 754.2,-84.8"/>
<text text-anchor="middle" x="673" y="-62.6" font-family="Times,serif" font-size="14.00">FormAddUserComponent</text>
</g>
<!-- GuserModule -->
<g id="node6" class="node">
<title>GuserModule</title>
<polygon fill="#8dd3c7" stroke="black" points="493.48,-149.8 490.48,-153.8 469.48,-153.8 466.48,-149.8 400.52,-149.8 400.52,-113.8 493.48,-113.8 493.48,-149.8"/>
<text text-anchor="middle" x="447" y="-127.6" font-family="Times,serif" font-size="14.00">GuserModule</text>
</g>
<!-- FormAddUserComponent&#45;&gt;GuserModule -->
<g id="edge1" class="edge">
<title>FormAddUserComponent&#45;&gt;GuserModule</title>
<path fill="none" stroke="black" d="M673,-84.82C673,-102.17 673,-125.8 673,-125.8 673,-125.8 503.55,-125.8 503.55,-125.8"/>
<polygon fill="black" stroke="black" points="503.55,-122.3 493.55,-125.8 503.55,-129.3 503.55,-122.3"/>
</g>
<!-- GuserComponent -->
<g id="node2" class="node">
<title>GuserComponent</title>
<polygon fill="#ffffb3" stroke="black" points="574.26,-84.8 459.74,-84.8 459.74,-48.8 574.26,-48.8 574.26,-84.8"/>
<text text-anchor="middle" x="517" y="-62.6" font-family="Times,serif" font-size="14.00">GuserComponent</text>
</g>
<!-- GuserComponent&#45;&gt;GuserModule -->
<g id="edge2" class="edge">
<title>GuserComponent&#45;&gt;GuserModule</title>
<path fill="none" stroke="black" d="M476.55,-84.91C476.55,-84.91 476.55,-103.79 476.55,-103.79"/>
<polygon fill="black" stroke="black" points="473.05,-103.79 476.55,-113.79 480.05,-103.79 473.05,-103.79"/>
</g>
<!-- ListUserComponent -->
<g id="node3" class="node">
<title>ListUserComponent</title>
<polygon fill="#ffffb3" stroke="black" points="441.54,-84.8 312.46,-84.8 312.46,-48.8 441.54,-48.8 441.54,-84.8"/>
<text text-anchor="middle" x="377" y="-62.6" font-family="Times,serif" font-size="14.00">ListUserComponent</text>
</g>
<!-- ListUserComponent&#45;&gt;GuserModule -->
<g id="edge3" class="edge">
<title>ListUserComponent&#45;&gt;GuserModule</title>
<path fill="none" stroke="black" d="M421.14,-84.91C421.14,-84.91 421.14,-103.79 421.14,-103.79"/>
<polygon fill="black" stroke="black" points="417.64,-103.79 421.14,-113.79 424.64,-103.79 417.64,-103.79"/>
</g>
<!-- LoginComponent -->
<g id="node4" class="node">
<title>LoginComponent</title>
<polygon fill="#ffffb3" stroke="black" points="294.28,-84.8 179.72,-84.8 179.72,-48.8 294.28,-48.8 294.28,-84.8"/>
<text text-anchor="middle" x="237" y="-62.6" font-family="Times,serif" font-size="14.00">LoginComponent</text>
</g>
<!-- LoginComponent&#45;&gt;GuserModule -->
<g id="edge4" class="edge">
<title>LoginComponent&#45;&gt;GuserModule</title>
<path fill="none" stroke="black" d="M237,-84.82C237,-102.17 237,-125.8 237,-125.8 237,-125.8 390.39,-125.8 390.39,-125.8"/>
<polygon fill="black" stroke="black" points="390.39,-129.3 400.39,-125.8 390.39,-122.3 390.39,-129.3"/>
</g>
<!-- MainUserComponent -->
<g id="node5" class="node">
<title>MainUserComponent</title>
<polygon fill="#ffffb3" stroke="black" points="161.81,-84.8 24.19,-84.8 24.19,-48.8 161.81,-48.8 161.81,-84.8"/>
<text text-anchor="middle" x="93" y="-62.6" font-family="Times,serif" font-size="14.00">MainUserComponent</text>
</g>
<!-- MainUserComponent&#45;&gt;GuserModule -->
<g id="edge5" class="edge">
<title>MainUserComponent&#45;&gt;GuserModule</title>
<path fill="none" stroke="black" d="M93,-85.08C93,-106.12 93,-137.8 93,-137.8 93,-137.8 390.36,-137.8 390.36,-137.8"/>
<polygon fill="black" stroke="black" points="390.36,-141.3 400.36,-137.8 390.36,-134.3 390.36,-141.3"/>
</g>
<!-- GuserRoutingModule -->
<g id="node7" class="node">
<title>GuserRoutingModule</title>
<polygon fill="#8dd3c7" stroke="black" points="916.09,-84.8 913.09,-88.8 892.09,-88.8 889.09,-84.8 777.91,-84.8 777.91,-48.8 916.09,-48.8 916.09,-84.8"/>
<text text-anchor="middle" x="847" y="-62.6" font-family="Times,serif" font-size="14.00">GuserRoutingModule</text>
</g>
<!-- GuserRoutingModule&#45;&gt;GuserModule -->
<g id="edge6" class="edge">
<title>GuserRoutingModule&#45;&gt;GuserModule</title>
<path fill="none" stroke="black" d="M847,-85.08C847,-106.12 847,-137.8 847,-137.8 847,-137.8 503.67,-137.8 503.67,-137.8"/>
<polygon fill="black" stroke="black" points="503.67,-134.3 493.67,-137.8 503.67,-141.3 503.67,-134.3"/>
</g>
</g>
</svg>
