<?xml version="1.0" encoding="UTF-8" standalone="no"?>
<!DOCTYPE svg PUBLIC "-//W3C//DTD SVG 1.1//EN"
 "http://www.w3.org/Graphics/SVG/1.1/DTD/svg11.dtd">
<!-- Generated by graphviz version 2.47.3 (20210619.1520)
 -->
<!-- Title: dependencies Pages: 1 -->
<svg width="1041pt" height="174pt"
 viewBox="0.00 0.00 1041.00 173.80" xmlns="http://www.w3.org/2000/svg" xmlns:xlink="http://www.w3.org/1999/xlink">
<g id="graph0" class="graph" transform="scale(1 1) rotate(0) translate(4 169.8)">
<title>dependencies</title>
<polygon fill="white" stroke="transparent" points="-4,4 -4,-169.8 1037,-169.8 1037,4 -4,4"/>
<text text-anchor="middle" x="516.5" y="-8.2" font-family="sans-serif" font-size="14.00">dependencies</text>
<g id="clust1" class="cluster">
<title>cluster_GproductModule</title>
<polygon fill="none" stroke="black" stroke-dasharray="1,5" points="8,-32.8 8,-157.8 1025,-157.8 1025,-32.8 8,-32.8"/>
</g>
<g id="clust2" class="cluster">
<title>cluster_GproductModule_declarations</title>
<polygon fill="none" stroke="black" points="198,-40.8 198,-92.8 1017,-92.8 1017,-40.8 198,-40.8"/>
</g>
<g id="clust8" class="cluster">
<title>cluster_GproductModule_imports</title>
<polygon fill="none" stroke="black" points="16,-40.8 16,-92.8 190,-92.8 190,-40.8 16,-40.8"/>
</g>
<!-- BestSellerComponent -->
<g id="node1" class="node">
<title>BestSellerComponent</title>
<polygon fill="#ffffb3" stroke="black" points="1009.37,-84.8 870.63,-84.8 870.63,-48.8 1009.37,-48.8 1009.37,-84.8"/>
<text text-anchor="middle" x="940" y="-62.6" font-family="Times,serif" font-size="14.00">BestSellerComponent</text>
</g>
<!-- GproductModule -->
<g id="node6" class="node">
<title>GproductModule</title>
<polygon fill="#8dd3c7" stroke="black" points="563.42,-149.8 560.42,-153.8 539.42,-153.8 536.42,-149.8 450.58,-149.8 450.58,-113.8 563.42,-113.8 563.42,-149.8"/>
<text text-anchor="middle" x="507" y="-127.6" font-family="Times,serif" font-size="14.00">GproductModule</text>
</g>
<!-- BestSellerComponent&#45;&gt;GproductModule -->
<g id="edge1" class="edge">
<title>BestSellerComponent&#45;&gt;GproductModule</title>
<path fill="none" stroke="black" d="M940,-85.08C940,-106.12 940,-137.8 940,-137.8 940,-137.8 573.61,-137.8 573.61,-137.8"/>
<polygon fill="black" stroke="black" points="573.61,-134.3 563.61,-137.8 573.61,-141.3 573.61,-134.3"/>
</g>
<!-- FormAddProductComponent -->
<g id="node2" class="node">
<title>FormAddProductComponent</title>
<polygon fill="#ffffb3" stroke="black" points="852.82,-84.8 673.18,-84.8 673.18,-48.8 852.82,-48.8 852.82,-84.8"/>
<text text-anchor="middle" x="763" y="-62.6" font-family="Times,serif" font-size="14.00">FormAddProductComponent</text>
</g>
<!-- FormAddProductComponent&#45;&gt;GproductModule -->
<g id="edge2" class="edge">
<title>FormAddProductComponent&#45;&gt;GproductModule</title>
<path fill="none" stroke="black" d="M763,-84.82C763,-102.17 763,-125.8 763,-125.8 763,-125.8 573.5,-125.8 573.5,-125.8"/>
<polygon fill="black" stroke="black" points="573.5,-122.3 563.5,-125.8 573.5,-129.3 573.5,-122.3"/>
</g>
<!-- GproductComponent -->
<g id="node3" class="node">
<title>GproductComponent</title>
<polygon fill="#ffffb3" stroke="black" points="655.2,-84.8 520.8,-84.8 520.8,-48.8 655.2,-48.8 655.2,-84.8"/>
<text text-anchor="middle" x="588" y="-62.6" font-family="Times,serif" font-size="14.00">GproductComponent</text>
</g>
<!-- GproductComponent&#45;&gt;GproductModule -->
<g id="edge3" class="edge">
<title>GproductComponent&#45;&gt;GproductModule</title>
<path fill="none" stroke="black" d="M542.05,-84.91C542.05,-84.91 542.05,-103.79 542.05,-103.79"/>
<polygon fill="black" stroke="black" points="538.55,-103.79 542.05,-113.79 545.55,-103.79 538.55,-103.79"/>
</g>
<!-- MainProductComponent -->
<g id="node4" class="node">
<title>MainProductComponent</title>
<polygon fill="#ffffb3" stroke="black" points="503.43,-84.8 348.57,-84.8 348.57,-48.8 503.43,-48.8 503.43,-84.8"/>
<text text-anchor="middle" x="426" y="-62.6" font-family="Times,serif" font-size="14.00">MainProductComponent</text>
</g>
<!-- MainProductComponent&#45;&gt;GproductModule -->
<g id="edge4" class="edge">
<title>MainProductComponent&#45;&gt;GproductModule</title>
<path fill="none" stroke="black" d="M477,-84.91C477,-84.91 477,-103.79 477,-103.79"/>
<polygon fill="black" stroke="black" points="473.5,-103.79 477,-113.79 480.5,-103.79 473.5,-103.79"/>
</g>
<!-- ProductComponent -->
<g id="node5" class="node">
<title>ProductComponent</title>
<polygon fill="#ffffb3" stroke="black" points="330.38,-84.8 205.62,-84.8 205.62,-48.8 330.38,-48.8 330.38,-84.8"/>
<text text-anchor="middle" x="268" y="-62.6" font-family="Times,serif" font-size="14.00">ProductComponent</text>
</g>
<!-- ProductComponent&#45;&gt;GproductModule -->
<g id="edge5" class="edge">
<title>ProductComponent&#45;&gt;GproductModule</title>
<path fill="none" stroke="black" d="M268,-84.82C268,-102.17 268,-125.8 268,-125.8 268,-125.8 440.66,-125.8 440.66,-125.8"/>
<polygon fill="black" stroke="black" points="440.66,-129.3 450.66,-125.8 440.66,-122.3 440.66,-129.3"/>
</g>
<!-- GproductRoutingModule -->
<g id="node7" class="node">
<title>GproductRoutingModule</title>
<polygon fill="#8dd3c7" stroke="black" points="181.54,-84.8 178.54,-88.8 157.54,-88.8 154.54,-84.8 24.46,-84.8 24.46,-48.8 181.54,-48.8 181.54,-84.8"/>
<text text-anchor="middle" x="103" y="-62.6" font-family="Times,serif" font-size="14.00">GproductRoutingModule</text>
</g>
<!-- GproductRoutingModule&#45;&gt;GproductModule -->
<g id="edge6" class="edge">
<title>GproductRoutingModule&#45;&gt;GproductModule</title>
<path fill="none" stroke="black" d="M103,-85.08C103,-106.12 103,-137.8 103,-137.8 103,-137.8 440.4,-137.8 440.4,-137.8"/>
<polygon fill="black" stroke="black" points="440.4,-141.3 450.4,-137.8 440.4,-134.3 440.4,-141.3"/>
</g>
</g>
</svg>
