<?xml version="1.0" encoding="UTF-8" standalone="no"?>
<!DOCTYPE svg PUBLIC "-//W3C//DTD SVG 1.1//EN"
 "http://www.w3.org/Graphics/SVG/1.1/DTD/svg11.dtd">
<!-- Generated by graphviz version 2.47.3 (20210619.1520)
 -->
<!-- Title: dependencies Pages: 1 -->
<svg width="920pt" height="247pt"
 viewBox="0.00 0.00 920.00 246.80" xmlns="http://www.w3.org/2000/svg" xmlns:xlink="http://www.w3.org/1999/xlink">
<g id="graph0" class="graph" transform="scale(1 1) rotate(0) translate(4 242.8)">
<title>dependencies</title>
<polygon fill="white" stroke="transparent" points="-4,4 -4,-242.8 916,-242.8 916,4 -4,4"/>
<text text-anchor="middle" x="456" y="-8.2" font-family="sans-serif" font-size="14.00">dependencies</text>
<g id="clust1" class="cluster">
<title>cluster_AppModule</title>
<polygon fill="none" stroke="black" stroke-dasharray="1,5" points="8,-32.8 8,-230.8 904,-230.8 904,-32.8 8,-32.8"/>
</g>
<g id="clust10" class="cluster">
<title>cluster_AppModule_bootstrap</title>
<polygon fill="none" stroke="black" points="419,-170.8 419,-222.8 543,-222.8 543,-170.8 419,-170.8"/>
</g>
<g id="clust8" class="cluster">
<title>cluster_AppModule_imports</title>
<polygon fill="none" stroke="black" points="752,-40.8 752,-92.8 896,-92.8 896,-40.8 752,-40.8"/>
</g>
<g id="clust2" class="cluster">
<title>cluster_AppModule_declarations</title>
<polygon fill="none" stroke="black" points="16,-40.8 16,-92.8 744,-92.8 744,-40.8 16,-40.8"/>
</g>
<!-- AppComponent -->
<g id="node1" class="node">
<title>AppComponent</title>
<polygon fill="#ffffb3" stroke="black" points="735.94,-84.8 630.06,-84.8 630.06,-48.8 735.94,-48.8 735.94,-84.8"/>
<text text-anchor="middle" x="683" y="-62.6" font-family="Times,serif" font-size="14.00">AppComponent</text>
</g>
<!-- AppModule -->
<g id="node6" class="node">
<title>AppModule</title>
<polygon fill="#8dd3c7" stroke="black" points="522.66,-149.8 519.66,-153.8 498.66,-153.8 495.66,-149.8 439.34,-149.8 439.34,-113.8 522.66,-113.8 522.66,-149.8"/>
<text text-anchor="middle" x="481" y="-127.6" font-family="Times,serif" font-size="14.00">AppModule</text>
</g>
<!-- AppComponent&#45;&gt;AppModule -->
<g id="edge1" class="edge">
<title>AppComponent&#45;&gt;AppModule</title>
<path fill="none" stroke="black" d="M683,-84.82C683,-102.17 683,-125.8 683,-125.8 683,-125.8 532.85,-125.8 532.85,-125.8"/>
<polygon fill="black" stroke="black" points="532.85,-122.3 522.85,-125.8 532.85,-129.3 532.85,-122.3"/>
</g>
<!-- ContentComponent -->
<g id="node2" class="node">
<title>ContentComponent</title>
<polygon fill="#ffffb3" stroke="black" points="611.67,-84.8 486.33,-84.8 486.33,-48.8 611.67,-48.8 611.67,-84.8"/>
<text text-anchor="middle" x="549" y="-62.6" font-family="Times,serif" font-size="14.00">ContentComponent</text>
</g>
<!-- ContentComponent&#45;&gt;AppModule -->
<g id="edge2" class="edge">
<title>ContentComponent&#45;&gt;AppModule</title>
<path fill="none" stroke="black" d="M504.5,-84.91C504.5,-84.91 504.5,-103.79 504.5,-103.79"/>
<polygon fill="black" stroke="black" points="501,-103.79 504.5,-113.79 508,-103.79 501,-103.79"/>
</g>
<!-- HeadComponent -->
<g id="node3" class="node">
<title>HeadComponent</title>
<polygon fill="#ffffb3" stroke="black" points="468.37,-84.8 357.63,-84.8 357.63,-48.8 468.37,-48.8 468.37,-84.8"/>
<text text-anchor="middle" x="413" y="-62.6" font-family="Times,serif" font-size="14.00">HeadComponent</text>
</g>
<!-- HeadComponent&#45;&gt;AppModule -->
<g id="edge3" class="edge">
<title>HeadComponent&#45;&gt;AppModule</title>
<path fill="none" stroke="black" d="M453.8,-84.91C453.8,-84.91 453.8,-103.79 453.8,-103.79"/>
<polygon fill="black" stroke="black" points="450.3,-103.79 453.8,-113.79 457.3,-103.79 450.3,-103.79"/>
</g>
<!-- MainProviderComponent -->
<g id="node4" class="node">
<title>MainProviderComponent</title>
<polygon fill="#ffffb3" stroke="black" points="339.59,-84.8 180.41,-84.8 180.41,-48.8 339.59,-48.8 339.59,-84.8"/>
<text text-anchor="middle" x="260" y="-62.6" font-family="Times,serif" font-size="14.00">MainProviderComponent</text>
</g>
<!-- MainProviderComponent&#45;&gt;AppModule -->
<g id="edge4" class="edge">
<title>MainProviderComponent&#45;&gt;AppModule</title>
<path fill="none" stroke="black" d="M260,-84.82C260,-102.17 260,-125.8 260,-125.8 260,-125.8 429.17,-125.8 429.17,-125.8"/>
<polygon fill="black" stroke="black" points="429.17,-129.3 439.17,-125.8 429.17,-122.3 429.17,-129.3"/>
</g>
<!-- NotFoundComponent -->
<g id="node5" class="node">
<title>NotFoundComponent</title>
<polygon fill="#ffffb3" stroke="black" points="162.11,-84.8 23.89,-84.8 23.89,-48.8 162.11,-48.8 162.11,-84.8"/>
<text text-anchor="middle" x="93" y="-62.6" font-family="Times,serif" font-size="14.00">NotFoundComponent</text>
</g>
<!-- NotFoundComponent&#45;&gt;AppModule -->
<g id="edge5" class="edge">
<title>NotFoundComponent&#45;&gt;AppModule</title>
<path fill="none" stroke="black" d="M93,-85.08C93,-106.12 93,-137.8 93,-137.8 93,-137.8 429.11,-137.8 429.11,-137.8"/>
<polygon fill="black" stroke="black" points="429.11,-141.3 439.11,-137.8 429.11,-134.3 429.11,-141.3"/>
</g>
<!-- AppComponent  -->
<g id="node8" class="node">
<title>AppComponent </title>
<polygon fill="#80b1d3" stroke="black" points="535.44,-214.8 426.56,-214.8 426.56,-178.8 535.44,-178.8 535.44,-214.8"/>
<text text-anchor="middle" x="481" y="-192.6" font-family="Times,serif" font-size="14.00">AppComponent </text>
</g>
<!-- AppModule&#45;&gt;AppComponent  -->
<g id="edge7" class="edge">
<title>AppModule&#45;&gt;AppComponent </title>
<path fill="none" stroke="black" stroke-dasharray="1,5" d="M481,-149.91C481,-149.91 481,-168.79 481,-168.79"/>
<polygon fill="black" stroke="black" points="477.5,-168.79 481,-178.79 484.5,-168.79 477.5,-168.79"/>
</g>
<!-- AppRoutingModule -->
<g id="node7" class="node">
<title>AppRoutingModule</title>
<polygon fill="#8dd3c7" stroke="black" points="888.27,-84.8 885.27,-88.8 864.27,-88.8 861.27,-84.8 759.73,-84.8 759.73,-48.8 888.27,-48.8 888.27,-84.8"/>
<text text-anchor="middle" x="824" y="-62.6" font-family="Times,serif" font-size="14.00">AppRoutingModule</text>
</g>
<!-- AppRoutingModule&#45;&gt;AppModule -->
<g id="edge6" class="edge">
<title>AppRoutingModule&#45;&gt;AppModule</title>
<path fill="none" stroke="black" d="M824,-85.08C824,-106.12 824,-137.8 824,-137.8 824,-137.8 532.72,-137.8 532.72,-137.8"/>
<polygon fill="black" stroke="black" points="532.72,-134.3 522.72,-137.8 532.72,-141.3 532.72,-134.3"/>
</g>
</g>
</svg>
