<?xml version="1.0" encoding="UTF-8" standalone="no"?>
<!DOCTYPE svg PUBLIC "-//W3C//DTD SVG 1.1//EN"
 "http://www.w3.org/Graphics/SVG/1.1/DTD/svg11.dtd">
<!-- Generated by graphviz version 2.47.3 (20210619.1520)
 -->
<!-- Title: dependencies Pages: 1 -->
<svg width="2877pt" height="247pt"
 viewBox="0.00 0.00 2877.00 246.80" xmlns="http://www.w3.org/2000/svg" xmlns:xlink="http://www.w3.org/1999/xlink">
<g id="graph0" class="graph" transform="scale(1 1) rotate(0) translate(4 242.8)">
<title>dependencies</title>
<polygon fill="white" stroke="transparent" points="-4,4 -4,-242.8 2873,-242.8 2873,4 -4,4"/>
<text text-anchor="middle" x="1434.5" y="-8.2" font-family="sans-serif" font-size="14.00">dependencies</text>
<g id="clust1" class="cluster">
<title>cluster_AppModule</title>
<polygon fill="none" stroke="black" stroke-dasharray="1,5" points="8,-32.8 8,-230.8 904,-230.8 904,-32.8 8,-32.8"/>
</g>
<g id="clust2" class="cluster">
<title>cluster_AppModule_declarations</title>
<polygon fill="none" stroke="black" points="168,-40.8 168,-92.8 896,-92.8 896,-40.8 168,-40.8"/>
</g>
<g id="clust8" class="cluster">
<title>cluster_AppModule_imports</title>
<polygon fill="none" stroke="black" points="16,-40.8 16,-92.8 160,-92.8 160,-40.8 16,-40.8"/>
</g>
<g id="clust10" class="cluster">
<title>cluster_AppModule_bootstrap</title>
<polygon fill="none" stroke="black" points="426,-170.8 426,-222.8 550,-222.8 550,-170.8 426,-170.8"/>
</g>
<g id="clust18" class="cluster">
<title>cluster_GproductModule</title>
<polygon fill="none" stroke="black" stroke-dasharray="1,5" points="912,-32.8 912,-157.8 1929,-157.8 1929,-32.8 912,-32.8"/>
</g>
<g id="clust19" class="cluster">
<title>cluster_GproductModule_declarations</title>
<polygon fill="none" stroke="black" points="1102,-40.8 1102,-92.8 1921,-92.8 1921,-40.8 1102,-40.8"/>
</g>
<g id="clust25" class="cluster">
<title>cluster_GproductModule_imports</title>
<polygon fill="none" stroke="black" points="920,-40.8 920,-92.8 1094,-92.8 1094,-40.8 920,-40.8"/>
</g>
<g id="clust35" class="cluster">
<title>cluster_GuserModule</title>
<polygon fill="none" stroke="black" stroke-dasharray="1,5" points="1937,-32.8 1937,-157.8 2861,-157.8 2861,-32.8 1937,-32.8"/>
</g>
<g id="clust36" class="cluster">
<title>cluster_GuserModule_declarations</title>
<polygon fill="none" stroke="black" points="2107,-40.8 2107,-92.8 2853,-92.8 2853,-40.8 2107,-40.8"/>
</g>
<g id="clust42" class="cluster">
<title>cluster_GuserModule_imports</title>
<polygon fill="none" stroke="black" points="1945,-40.8 1945,-92.8 2099,-92.8 2099,-40.8 1945,-40.8"/>
</g>
<!-- AppComponent -->
<g id="node1" class="node">
<title>AppComponent</title>
<polygon fill="#ffffb3" stroke="black" points="887.94,-84.8 782.06,-84.8 782.06,-48.8 887.94,-48.8 887.94,-84.8"/>
<text text-anchor="middle" x="835" y="-62.6" font-family="Times,serif" font-size="14.00">AppComponent</text>
</g>
<!-- AppModule -->
<g id="node6" class="node">
<title>AppModule</title>
<polygon fill="#8dd3c7" stroke="black" points="529.66,-149.8 526.66,-153.8 505.66,-153.8 502.66,-149.8 446.34,-149.8 446.34,-113.8 529.66,-113.8 529.66,-149.8"/>
<text text-anchor="middle" x="488" y="-127.6" font-family="Times,serif" font-size="14.00">AppModule</text>
</g>
<!-- AppComponent&#45;&gt;AppModule -->
<g id="edge1" class="edge">
<title>AppComponent&#45;&gt;AppModule</title>
<path fill="none" stroke="black" d="M835,-84.81C835,-107.29 835,-142.8 835,-142.8 835,-142.8 539.86,-142.8 539.86,-142.8"/>
<polygon fill="black" stroke="black" points="539.86,-139.3 529.86,-142.8 539.86,-146.3 539.86,-139.3"/>
</g>
<!-- ContentComponent -->
<g id="node2" class="node">
<title>ContentComponent</title>
<polygon fill="#ffffb3" stroke="black" points="763.67,-84.8 638.33,-84.8 638.33,-48.8 763.67,-48.8 763.67,-84.8"/>
<text text-anchor="middle" x="701" y="-62.6" font-family="Times,serif" font-size="14.00">ContentComponent</text>
</g>
<!-- ContentComponent&#45;&gt;AppModule -->
<g id="edge2" class="edge">
<title>ContentComponent&#45;&gt;AppModule</title>
<path fill="none" stroke="black" d="M701,-84.93C701,-105.37 701,-135.8 701,-135.8 701,-135.8 539.83,-135.8 539.83,-135.8"/>
<polygon fill="black" stroke="black" points="539.83,-132.3 529.83,-135.8 539.83,-139.3 539.83,-132.3"/>
</g>
<!-- HeadComponent -->
<g id="node3" class="node">
<title>HeadComponent</title>
<polygon fill="#ffffb3" stroke="black" points="620.37,-84.8 509.63,-84.8 509.63,-48.8 620.37,-48.8 620.37,-84.8"/>
<text text-anchor="middle" x="565" y="-62.6" font-family="Times,serif" font-size="14.00">HeadComponent</text>
</g>
<!-- HeadComponent&#45;&gt;AppModule -->
<g id="edge3" class="edge">
<title>HeadComponent&#45;&gt;AppModule</title>
<path fill="none" stroke="black" d="M519.7,-84.91C519.7,-84.91 519.7,-103.79 519.7,-103.79"/>
<polygon fill="black" stroke="black" points="516.2,-103.79 519.7,-113.79 523.2,-103.79 516.2,-103.79"/>
</g>
<!-- MainProviderComponent -->
<g id="node4" class="node">
<title>MainProviderComponent</title>
<polygon fill="#ffffb3" stroke="black" points="491.59,-84.8 332.41,-84.8 332.41,-48.8 491.59,-48.8 491.59,-84.8"/>
<text text-anchor="middle" x="412" y="-62.6" font-family="Times,serif" font-size="14.00">MainProviderComponent</text>
</g>
<!-- MainProviderComponent&#45;&gt;AppModule -->
<g id="edge4" class="edge">
<title>MainProviderComponent&#45;&gt;AppModule</title>
<path fill="none" stroke="black" d="M468.86,-84.91C468.86,-84.91 468.86,-103.79 468.86,-103.79"/>
<polygon fill="black" stroke="black" points="465.36,-103.79 468.86,-113.79 472.36,-103.79 465.36,-103.79"/>
</g>
<!-- NotFoundComponent -->
<g id="node5" class="node">
<title>NotFoundComponent</title>
<polygon fill="#ffffb3" stroke="black" points="314.11,-84.8 175.89,-84.8 175.89,-48.8 314.11,-48.8 314.11,-84.8"/>
<text text-anchor="middle" x="245" y="-62.6" font-family="Times,serif" font-size="14.00">NotFoundComponent</text>
</g>
<!-- NotFoundComponent&#45;&gt;AppModule -->
<g id="edge5" class="edge">
<title>NotFoundComponent&#45;&gt;AppModule</title>
<path fill="none" stroke="black" d="M245,-84.82C245,-102.17 245,-125.8 245,-125.8 245,-125.8 436.23,-125.8 436.23,-125.8"/>
<polygon fill="black" stroke="black" points="436.23,-129.3 446.23,-125.8 436.23,-122.3 436.23,-129.3"/>
</g>
<!-- AppComponent  -->
<g id="node8" class="node">
<title>AppComponent </title>
<polygon fill="#80b1d3" stroke="black" points="542.44,-214.8 433.56,-214.8 433.56,-178.8 542.44,-178.8 542.44,-214.8"/>
<text text-anchor="middle" x="488" y="-192.6" font-family="Times,serif" font-size="14.00">AppComponent </text>
</g>
<!-- AppModule&#45;&gt;AppComponent  -->
<g id="edge7" class="edge">
<title>AppModule&#45;&gt;AppComponent </title>
<path fill="none" stroke="black" stroke-dasharray="1,5" d="M488,-149.91C488,-149.91 488,-168.79 488,-168.79"/>
<polygon fill="black" stroke="black" points="484.5,-168.79 488,-178.79 491.5,-168.79 484.5,-168.79"/>
</g>
<!-- AppRoutingModule -->
<g id="node7" class="node">
<title>AppRoutingModule</title>
<polygon fill="#8dd3c7" stroke="black" points="152.27,-84.8 149.27,-88.8 128.27,-88.8 125.27,-84.8 23.73,-84.8 23.73,-48.8 152.27,-48.8 152.27,-84.8"/>
<text text-anchor="middle" x="88" y="-62.6" font-family="Times,serif" font-size="14.00">AppRoutingModule</text>
</g>
<!-- AppRoutingModule&#45;&gt;AppModule -->
<g id="edge6" class="edge">
<title>AppRoutingModule&#45;&gt;AppModule</title>
<path fill="none" stroke="black" d="M88,-85.08C88,-106.12 88,-137.8 88,-137.8 88,-137.8 436.32,-137.8 436.32,-137.8"/>
<polygon fill="black" stroke="black" points="436.33,-141.3 446.32,-137.8 436.32,-134.3 436.33,-141.3"/>
</g>
<!-- BestSellerComponent -->
<g id="node9" class="node">
<title>BestSellerComponent</title>
<polygon fill="#ffffb3" stroke="black" points="1913.37,-84.8 1774.63,-84.8 1774.63,-48.8 1913.37,-48.8 1913.37,-84.8"/>
<text text-anchor="middle" x="1844" y="-62.6" font-family="Times,serif" font-size="14.00">BestSellerComponent</text>
</g>
<!-- GproductModule -->
<g id="node14" class="node">
<title>GproductModule</title>
<polygon fill="#8dd3c7" stroke="black" points="1467.42,-149.8 1464.42,-153.8 1443.42,-153.8 1440.42,-149.8 1354.58,-149.8 1354.58,-113.8 1467.42,-113.8 1467.42,-149.8"/>
<text text-anchor="middle" x="1411" y="-127.6" font-family="Times,serif" font-size="14.00">GproductModule</text>
</g>
<!-- BestSellerComponent&#45;&gt;GproductModule -->
<g id="edge8" class="edge">
<title>BestSellerComponent&#45;&gt;GproductModule</title>
<path fill="none" stroke="black" d="M1844,-85.07C1844,-103.36 1844,-128.8 1844,-128.8 1844,-128.8 1477.61,-128.8 1477.61,-128.8"/>
<polygon fill="black" stroke="black" points="1477.61,-125.3 1467.61,-128.8 1477.61,-132.3 1477.61,-125.3"/>
</g>
<!-- FormAddProductComponent -->
<g id="node10" class="node">
<title>FormAddProductComponent</title>
<polygon fill="#ffffb3" stroke="black" points="1756.82,-84.8 1577.18,-84.8 1577.18,-48.8 1756.82,-48.8 1756.82,-84.8"/>
<text text-anchor="middle" x="1667" y="-62.6" font-family="Times,serif" font-size="14.00">FormAddProductComponent</text>
</g>
<!-- FormAddProductComponent&#45;&gt;GproductModule -->
<g id="edge9" class="edge">
<title>FormAddProductComponent&#45;&gt;GproductModule</title>
<path fill="none" stroke="black" d="M1667,-84.81C1667,-100.85 1667,-121.8 1667,-121.8 1667,-121.8 1477.5,-121.8 1477.5,-121.8"/>
<polygon fill="black" stroke="black" points="1477.5,-118.3 1467.5,-121.8 1477.5,-125.3 1477.5,-118.3"/>
</g>
<!-- GproductComponent -->
<g id="node11" class="node">
<title>GproductComponent</title>
<polygon fill="#ffffb3" stroke="black" points="1559.2,-84.8 1424.8,-84.8 1424.8,-48.8 1559.2,-48.8 1559.2,-84.8"/>
<text text-anchor="middle" x="1492" y="-62.6" font-family="Times,serif" font-size="14.00">GproductComponent</text>
</g>
<!-- GproductComponent&#45;&gt;GproductModule -->
<g id="edge10" class="edge">
<title>GproductComponent&#45;&gt;GproductModule</title>
<path fill="none" stroke="black" d="M1446.05,-84.91C1446.05,-84.91 1446.05,-103.79 1446.05,-103.79"/>
<polygon fill="black" stroke="black" points="1442.55,-103.79 1446.05,-113.79 1449.55,-103.79 1442.55,-103.79"/>
</g>
<!-- MainProductComponent -->
<g id="node12" class="node">
<title>MainProductComponent</title>
<polygon fill="#ffffb3" stroke="black" points="1407.43,-84.8 1252.57,-84.8 1252.57,-48.8 1407.43,-48.8 1407.43,-84.8"/>
<text text-anchor="middle" x="1330" y="-62.6" font-family="Times,serif" font-size="14.00">MainProductComponent</text>
</g>
<!-- MainProductComponent&#45;&gt;GproductModule -->
<g id="edge11" class="edge">
<title>MainProductComponent&#45;&gt;GproductModule</title>
<path fill="none" stroke="black" d="M1381,-84.91C1381,-84.91 1381,-103.79 1381,-103.79"/>
<polygon fill="black" stroke="black" points="1377.5,-103.79 1381,-113.79 1384.5,-103.79 1377.5,-103.79"/>
</g>
<!-- ProductComponent -->
<g id="node13" class="node">
<title>ProductComponent</title>
<polygon fill="#ffffb3" stroke="black" points="1234.38,-84.8 1109.62,-84.8 1109.62,-48.8 1234.38,-48.8 1234.38,-84.8"/>
<text text-anchor="middle" x="1172" y="-62.6" font-family="Times,serif" font-size="14.00">ProductComponent</text>
</g>
<!-- ProductComponent&#45;&gt;GproductModule -->
<g id="edge12" class="edge">
<title>ProductComponent&#45;&gt;GproductModule</title>
<path fill="none" stroke="black" d="M1172,-84.81C1172,-100.85 1172,-121.8 1172,-121.8 1172,-121.8 1344.66,-121.8 1344.66,-121.8"/>
<polygon fill="black" stroke="black" points="1344.66,-125.3 1354.66,-121.8 1344.66,-118.3 1344.66,-125.3"/>
</g>
<!-- GproductRoutingModule -->
<g id="node15" class="node">
<title>GproductRoutingModule</title>
<polygon fill="#8dd3c7" stroke="black" points="1085.54,-84.8 1082.54,-88.8 1061.54,-88.8 1058.54,-84.8 928.46,-84.8 928.46,-48.8 1085.54,-48.8 1085.54,-84.8"/>
<text text-anchor="middle" x="1007" y="-62.6" font-family="Times,serif" font-size="14.00">GproductRoutingModule</text>
</g>
<!-- GproductRoutingModule&#45;&gt;GproductModule -->
<g id="edge13" class="edge">
<title>GproductRoutingModule&#45;&gt;GproductModule</title>
<path fill="none" stroke="black" d="M1007,-85.07C1007,-103.36 1007,-128.8 1007,-128.8 1007,-128.8 1344.4,-128.8 1344.4,-128.8"/>
<polygon fill="black" stroke="black" points="1344.4,-132.3 1354.4,-128.8 1344.4,-125.3 1344.4,-132.3"/>
</g>
<!-- FormAddUserComponent -->
<g id="node16" class="node">
<title>FormAddUserComponent</title>
<polygon fill="#ffffb3" stroke="black" points="2845.2,-84.8 2682.8,-84.8 2682.8,-48.8 2845.2,-48.8 2845.2,-84.8"/>
<text text-anchor="middle" x="2764" y="-62.6" font-family="Times,serif" font-size="14.00">FormAddUserComponent</text>
</g>
<!-- GuserModule -->
<g id="node21" class="node">
<title>GuserModule</title>
<polygon fill="#8dd3c7" stroke="black" points="2444.48,-149.8 2441.48,-153.8 2420.48,-153.8 2417.48,-149.8 2351.52,-149.8 2351.52,-113.8 2444.48,-113.8 2444.48,-149.8"/>
<text text-anchor="middle" x="2398" y="-127.6" font-family="Times,serif" font-size="14.00">GuserModule</text>
</g>
<!-- FormAddUserComponent&#45;&gt;GuserModule -->
<g id="edge14" class="edge">
<title>FormAddUserComponent&#45;&gt;GuserModule</title>
<path fill="none" stroke="black" d="M2764,-85.08C2764,-106.12 2764,-137.8 2764,-137.8 2764,-137.8 2454.73,-137.8 2454.73,-137.8"/>
<polygon fill="black" stroke="black" points="2454.73,-134.3 2444.73,-137.8 2454.73,-141.3 2454.73,-134.3"/>
</g>
<!-- GuserComponent -->
<g id="node17" class="node">
<title>GuserComponent</title>
<polygon fill="#ffffb3" stroke="black" points="2665.26,-84.8 2550.74,-84.8 2550.74,-48.8 2665.26,-48.8 2665.26,-84.8"/>
<text text-anchor="middle" x="2608" y="-62.6" font-family="Times,serif" font-size="14.00">GuserComponent</text>
</g>
<!-- GuserComponent&#45;&gt;GuserModule -->
<g id="edge15" class="edge">
<title>GuserComponent&#45;&gt;GuserModule</title>
<path fill="none" stroke="black" d="M2608,-84.82C2608,-102.17 2608,-125.8 2608,-125.8 2608,-125.8 2454.61,-125.8 2454.61,-125.8"/>
<polygon fill="black" stroke="black" points="2454.61,-122.3 2444.61,-125.8 2454.61,-129.3 2454.61,-122.3"/>
</g>
<!-- ListUserComponent -->
<g id="node18" class="node">
<title>ListUserComponent</title>
<polygon fill="#ffffb3" stroke="black" points="2532.54,-84.8 2403.46,-84.8 2403.46,-48.8 2532.54,-48.8 2532.54,-84.8"/>
<text text-anchor="middle" x="2468" y="-62.6" font-family="Times,serif" font-size="14.00">ListUserComponent</text>
</g>
<!-- ListUserComponent&#45;&gt;GuserModule -->
<g id="edge16" class="edge">
<title>ListUserComponent&#45;&gt;GuserModule</title>
<path fill="none" stroke="black" d="M2423.86,-84.91C2423.86,-84.91 2423.86,-103.79 2423.86,-103.79"/>
<polygon fill="black" stroke="black" points="2420.36,-103.79 2423.86,-113.79 2427.36,-103.79 2420.36,-103.79"/>
</g>
<!-- LoginComponent -->
<g id="node19" class="node">
<title>LoginComponent</title>
<polygon fill="#ffffb3" stroke="black" points="2385.28,-84.8 2270.72,-84.8 2270.72,-48.8 2385.28,-48.8 2385.28,-84.8"/>
<text text-anchor="middle" x="2328" y="-62.6" font-family="Times,serif" font-size="14.00">LoginComponent</text>
</g>
<!-- LoginComponent&#45;&gt;GuserModule -->
<g id="edge17" class="edge">
<title>LoginComponent&#45;&gt;GuserModule</title>
<path fill="none" stroke="black" d="M2368.45,-84.91C2368.45,-84.91 2368.45,-103.79 2368.45,-103.79"/>
<polygon fill="black" stroke="black" points="2364.95,-103.79 2368.45,-113.79 2371.95,-103.79 2364.95,-103.79"/>
</g>
<!-- MainUserComponent -->
<g id="node20" class="node">
<title>MainUserComponent</title>
<polygon fill="#ffffb3" stroke="black" points="2252.81,-84.8 2115.19,-84.8 2115.19,-48.8 2252.81,-48.8 2252.81,-84.8"/>
<text text-anchor="middle" x="2184" y="-62.6" font-family="Times,serif" font-size="14.00">MainUserComponent</text>
</g>
<!-- MainUserComponent&#45;&gt;GuserModule -->
<g id="edge18" class="edge">
<title>MainUserComponent&#45;&gt;GuserModule</title>
<path fill="none" stroke="black" d="M2184,-84.93C2184,-105.37 2184,-135.8 2184,-135.8 2184,-135.8 2341.3,-135.8 2341.3,-135.8"/>
<polygon fill="black" stroke="black" points="2341.3,-139.3 2351.3,-135.8 2341.3,-132.3 2341.3,-139.3"/>
</g>
<!-- GuserRoutingModule -->
<g id="node22" class="node">
<title>GuserRoutingModule</title>
<polygon fill="#8dd3c7" stroke="black" points="2091.09,-84.8 2088.09,-88.8 2067.09,-88.8 2064.09,-84.8 1952.91,-84.8 1952.91,-48.8 2091.09,-48.8 2091.09,-84.8"/>
<text text-anchor="middle" x="2022" y="-62.6" font-family="Times,serif" font-size="14.00">GuserRoutingModule</text>
</g>
<!-- GuserRoutingModule&#45;&gt;GuserModule -->
<g id="edge19" class="edge">
<title>GuserRoutingModule&#45;&gt;GuserModule</title>
<path fill="none" stroke="black" d="M2022,-84.81C2022,-107.29 2022,-142.8 2022,-142.8 2022,-142.8 2341.52,-142.8 2341.52,-142.8"/>
<polygon fill="black" stroke="black" points="2341.52,-146.3 2351.52,-142.8 2341.52,-139.3 2341.52,-146.3"/>
</g>
</g>
</svg>
